<?xml version="1.0" encoding="utf-8"?>
<!-- Generator: Adobe Illustrator 28.0.0, SVG Export Plug-In . SVG Version: 6.00 Build 0)  -->
<svg version="1.1" xmlns="http://www.w3.org/2000/svg" xmlns:xlink="http://www.w3.org/1999/xlink" x="0px" y="0px"
	 viewBox="0 0 500 500" style="enable-background:new 0 0 500 500;" xml:space="preserve">
<style type="text/css">
	.st0{fill:#F3CF54;}
	.st1{opacity:0.7;fill:#FFFFFF;}
	.st2{fill:none;stroke:#263238;stroke-linecap:round;stroke-linejoin:round;stroke-miterlimit:10;}
	.st3{fill:none;stroke:#263238;stroke-width:3;stroke-linecap:round;stroke-linejoin:round;stroke-miterlimit:10;}
	.st4{fill:#B0B0B0;stroke:#263238;stroke-linecap:round;stroke-linejoin:round;stroke-miterlimit:10;}
	.st5{opacity:0.3;fill:none;stroke:#000000;stroke-linecap:round;stroke-linejoin:round;stroke-miterlimit:10;}
	.st6{fill:#263238;stroke:#263238;stroke-miterlimit:10;}
	.st7{fill:#FFFFFF;stroke:#263238;stroke-linecap:round;stroke-linejoin:round;stroke-miterlimit:10;}
	.st8{fill:#F3CF54;stroke:#263238;stroke-linecap:round;stroke-linejoin:round;stroke-miterlimit:10;}
	.st9{fill:#263238;stroke:#263238;stroke-linecap:round;stroke-linejoin:round;stroke-miterlimit:10;}
	.st10{fill:#263238;}
	.st11{fill:#EDEDED;stroke:#263238;stroke-miterlimit:10;}
	.st12{fill:#BABABA;stroke:#263238;stroke-linecap:round;stroke-linejoin:round;stroke-miterlimit:10;}
	.st13{fill:#FFFFFF;stroke:#263238;stroke-miterlimit:10;}
	.st14{fill:none;stroke:#263238;stroke-miterlimit:10;}
	.st15{fill:#A8A8A8;stroke:#263238;stroke-linecap:round;stroke-linejoin:round;stroke-miterlimit:10;}
	.st16{fill:#C2C2C2;stroke:#263238;stroke-linecap:round;stroke-linejoin:round;stroke-miterlimit:10;}
	.st17{fill:none;stroke:#636363;stroke-linecap:round;stroke-linejoin:round;stroke-miterlimit:10;}
	.st18{opacity:0.37;fill:#FFFFFF;}
	.st19{fill:#A6A6A6;stroke:#263238;stroke-linecap:round;stroke-linejoin:round;stroke-miterlimit:10;}
</style>
<g id="Background_Simple">
	<g>
		<path class="st0" d="M383.3,130.3c-3.3-6.6-6.8-13.1-10.8-19.4c-45.7-71.7-168-110.7-228.7-36.6c-14.4,17.7-19.5,39-29.2,59.3
			c-22.1,46.1-63.4,73.6-89.4,116.3C5.3,283,7.9,325.4,19.1,361.1c12.2,38.9,33.6,66,67.9,86.6c38.4,23.1,79.5,16.7,121.1,8.7
			c18.7-3.6,37.9-7.3,57-5.9c23.9,1.7,47.5,8.7,71.3,12.1c24.7,3.5,50.3,4.4,74-3.3c76.1-24.6,94.2-139.7,62.9-205.7
			c-11.1-23.4-29.9-41.4-47.3-59.6C407.2,174.1,395.6,154.8,383.3,130.3z"/>
		<path class="st1" d="M383.3,130.3c-3.3-6.6-6.8-13.1-10.8-19.4c-45.7-71.7-168-110.7-228.7-36.6c-14.4,17.7-19.5,39-29.2,59.3
			c-22.1,46.1-63.4,73.6-89.4,116.3C5.3,283,7.9,325.4,19.1,361.1c12.2,38.9,33.6,66,67.9,86.6c38.4,23.1,79.5,16.7,121.1,8.7
			c18.7-3.6,37.9-7.3,57-5.9c23.9,1.7,47.5,8.7,71.3,12.1c24.7,3.5,50.3,4.4,74-3.3c76.1-24.6,94.2-139.7,62.9-205.7
			c-11.1-23.4-29.9-41.4-47.3-59.6C407.2,174.1,395.6,154.8,383.3,130.3z"/>
	</g>
</g>
<g id="Floor">
	<g>
		<line class="st2" x1="467.9" y1="457.6" x2="484.1" y2="457.6"/>
		<line class="st2" x1="18.1" y1="457.6" x2="459.5" y2="457.6"/>
	</g>
</g>
<g id="Plant">
	<g>
		<g>
			<path class="st3" d="M453.3,278.5c0,0-10.1,28.8-24.3,77.4c-14.2,48.7-12.3,79-12.3,79"/>
			<path class="st3" d="M414.1,254.2c0,0-9.5,49.9-4.1,79c5.4,29.1-7.7,90.1-7.7,90.1"/>
			<path class="st3" d="M387.3,292.7c0,0,0.6,32.6,7.9,60.1c7.3,27.5,13.6,64.8,11.1,81.2"/>
			<path class="st0" d="M455.3,262.9c0,0,0.2-8.4-5.3-18.4c-5.5-10.1-12-13.4-12-13.4s8.2,6.9,10.1,13c1.9,6.1,5.1,17.4,5.1,17.4
				s-3.6-12.2-11.4-18.4c-7.8-6.3-13.1-8.4-13.1-8.4s9.5,7.1,15.2,13.6c5.7,6.5,6.5,14,6.5,14s-7.4-11.9-15.4-15.5
				c-8-3.6-12-4.6-12-4.6s9.1,4,14.6,8.8c5.5,4.8,9.3,12.6,9.3,12.6s-8.2-6.9-16.7-9c-8.4-2.1-11.6-2.1-11.6-2.1s7.2,1.7,15.8,6.3
				c8.7,4.6,11,8.8,11,8.8s-5.7-3.4-11.4-2.9c-5.7,0.4-17.5,5-17.5,5s10.6-3.6,17.5-3.4c7,0.2,11.8,6.3,11.8,6.3s-5.7-5-15.4,0
				c-9.7,5-12.7,11.5-12.7,11.5s6.3-6.5,14.4-8.8c8-2.3,12,0.4,12,0.4s-8.2,2.5-12,8.2c-3.8,5.7-5.3,17.2-5.3,17.2
				s2.3-12.8,7.2-16.5c4.9-3.8,12.5-5.2,12.5-5.2s-4.6,1.7-9.7,8c-5.1,6.3-4.9,21.8-4.9,21.8s1.3-12.8,4.6-17.8
				c3.4-5,9.7-8.2,9.7-8.2s-2.7-1.9-4.4,11.1c-1.7,13,0.2,22.4,0.2,22.4s0.6-16.8,2.3-22c1.7-5.2,4-9.6,4-9.6s-2.1,17.2-1.3,22.8
				c0.8,5.7,2.3,11.1,2.3,11.1s-0.8-10.7,0.2-18.4c1.1-7.8,2.1-13.8,2.1-13.8l1.9,14.2l-0.2,18l2.5-17l-1.7-15.1
				c0,0,3.4,4.2,5.1,12.2c1.7,8,1.7,16.1,1.7,16.1s1.5-13.4,0.4-19.3c-1.1-5.9-2.3-10.9-2.3-10.9s5.1,0,7.6,12.4
				c2.5,12.4,2.3,18,2.3,18s3.2-8.6-0.6-19.7c-3.8-11.1-5.3-13.4-5.3-13.4s5.7,0.6,10.8,8.6c5.1,8,5.5,15.5,5.5,15.5s-0.2-11.3-4-18
				c-3.8-6.7-11.8-8.4-11.8-8.4s8.7-2.9,16,4.6c7.4,7.5,10.6,16.1,10.6,16.1s-4.9-14.5-10.3-19.7c-5.5-5.2-13.1-4.6-13.1-4.6
				s8.2-2.3,15.2-1.3s13.5,8.8,13.5,8.8s-3-8.8-12.5-10.7c-9.5-1.9-14.8,1.5-14.8,1.5s8.7-8.2,16.9-7.1c8.2,1,12.9,4.8,12.9,4.8
				s-8.2-7.3-14.6-7.1c-6.3,0.2-15.2,6.1-15.2,6.1s1.3-7.3,11.2-11.5c9.9-4.2,14.4-3.4,14.4-3.4s-13.1,0.4-20.5,4.8
				c-7.4,4.4-8.7,6.9-8.7,6.9s6.5-12.8,12.7-18c6.1-5.2,11.8-6.5,11.8-6.5s-11,2.1-16.5,7.5c-5.5,5.4-8.4,12.4-8.4,12.4
				s0.4-7.8,3.2-13.6c2.7-5.9,9.3-10.9,9.3-10.9s-7,2.3-11,10.1s-6.1,13.6-6.1,13.6s-1.3-7.3,2.7-17.6c4-10.3,5.5-14,5.5-14
				s-7.8,10.1-9.5,18C456.5,257.1,455.3,262.9,455.3,262.9z"/>
			<path class="st0" d="M418.6,236.3c0,0,0.2-8.4-5.3-18.4c-5.5-10.1-12-13.4-12-13.4s8.2,6.9,10.1,13c1.9,6.1,5.1,17.4,5.1,17.4
				s-3.6-12.2-11.4-18.4c-7.8-6.3-13.1-8.4-13.1-8.4s9.5,7.1,15.2,13.6c5.7,6.5,6.5,14,6.5,14s-7.4-11.9-15.4-15.5
				c-8-3.6-12-4.6-12-4.6s9.1,4,14.6,8.8c5.5,4.8,9.3,12.6,9.3,12.6s-8.2-6.9-16.7-9c-8.4-2.1-11.6-2.1-11.6-2.1s7.2,1.7,15.8,6.3
				c8.7,4.6,11,8.8,11,8.8s-5.7-3.4-11.4-2.9c-5.7,0.4-17.5,5-17.5,5s10.6-3.6,17.5-3.4c7,0.2,11.8,6.3,11.8,6.3s-5.7-5-15.4,0
				c-9.7,5-12.7,11.5-12.7,11.5s6.3-6.5,14.4-8.8c8-2.3,12,0.4,12,0.4s-8.2,2.5-12,8.2c-3.8,5.7-5.3,17.2-5.3,17.2
				s2.3-12.8,7.2-16.5c4.9-3.8,12.5-5.2,12.5-5.2s-4.6,1.7-9.7,8c-5.1,6.3-4.9,21.8-4.9,21.8s1.3-12.8,4.6-17.8
				c3.4-5,9.7-8.2,9.7-8.2s-2.7-1.9-4.4,11.1c-1.7,13,0.2,22.4,0.2,22.4s0.6-16.8,2.3-22c1.7-5.2,4-9.6,4-9.6s-2.1,17.2-1.3,22.8
				c0.8,5.7,2.3,11.1,2.3,11.1s-0.8-10.7,0.2-18.4c1.1-7.8,2.1-13.8,2.1-13.8l1.9,14.2l-0.2,18l2.5-17l-1.7-15.1
				c0,0,3.4,4.2,5.1,12.2c1.7,8,1.7,16.1,1.7,16.1s1.5-13.4,0.4-19.3c-1.1-5.9-2.3-10.9-2.3-10.9s5.1,0,7.6,12.4
				c2.5,12.4,2.3,18,2.3,18s3.2-8.6-0.6-19.7c-3.8-11.1-5.3-13.4-5.3-13.4s5.7,0.6,10.8,8.6c5.1,8,5.5,15.5,5.5,15.5s-0.2-11.3-4-18
				c-3.8-6.7-11.8-8.4-11.8-8.4s8.7-2.9,16,4.6c7.4,7.5,10.6,16.1,10.6,16.1s-4.9-14.5-10.3-19.7c-5.5-5.2-13.1-4.6-13.1-4.6
				s8.2-2.3,15.2-1.3c7,1,13.5,8.8,13.5,8.8s-3-8.8-12.5-10.7c-9.5-1.9-14.8,1.5-14.8,1.5s8.7-8.2,16.9-7.1c8.2,1,12.9,4.8,12.9,4.8
				s-8.2-7.3-14.6-7.1c-6.3,0.2-15.2,6.1-15.2,6.1s1.3-7.3,11.2-11.5c9.9-4.2,14.4-3.4,14.4-3.4s-13.1,0.4-20.5,4.8
				s-8.7,6.9-8.7,6.9s6.5-12.8,12.7-18c6.1-5.2,11.8-6.5,11.8-6.5s-11,2.1-16.5,7.5c-5.5,5.4-8.4,12.4-8.4,12.4s0.4-7.8,3.2-13.6
				c2.7-5.9,9.3-10.9,9.3-10.9s-7,2.3-11,10.1c-4,7.8-6.1,13.6-6.1,13.6s-1.3-7.3,2.7-17.6c4-10.3,5.5-14,5.5-14s-7.8,10.1-9.5,18
				C419.8,230.4,418.6,236.3,418.6,236.3z"/>
			<path class="st0" d="M387.6,279c0,0,0.2-8.4-5.3-18.4c-5.5-10.1-12-13.4-12-13.4s8.2,6.9,10.1,13c1.9,6.1,5.1,17.4,5.1,17.4
				s-3.6-12.2-11.4-18.4c-7.8-6.3-13.1-8.4-13.1-8.4s9.5,7.1,15.2,13.6c5.7,6.5,6.5,14,6.5,14s-7.4-11.9-15.4-15.5
				c-8-3.6-12-4.6-12-4.6s9.1,4,14.6,8.8c5.5,4.8,9.3,12.6,9.3,12.6s-8.2-6.9-16.7-9c-8.4-2.1-11.6-2.1-11.6-2.1s7.2,1.7,15.8,6.3
				c8.7,4.6,11,8.8,11,8.8s-5.7-3.4-11.4-2.9c-5.7,0.4-17.5,5-17.5,5s10.6-3.6,17.5-3.4c7,0.2,11.8,6.3,11.8,6.3s-5.7-5-15.4,0
				c-9.7,5-12.7,11.5-12.7,11.5s6.3-6.5,14.4-8.8c8-2.3,12,0.4,12,0.4s-8.2,2.5-12,8.2c-3.8,5.7-5.3,17.2-5.3,17.2
				s2.3-12.8,7.2-16.5c4.9-3.8,12.5-5.2,12.5-5.2s-4.6,1.7-9.7,8c-5.1,6.3-4.9,21.8-4.9,21.8s1.3-12.8,4.6-17.8
				c3.4-5,9.7-8.2,9.7-8.2s-2.7-1.9-4.4,11.1c-1.7,13,0.2,22.4,0.2,22.4s0.6-16.8,2.3-22c1.7-5.2,4-9.6,4-9.6s-2.1,17.2-1.3,22.8
				c0.8,5.7,2.3,11.1,2.3,11.1s-0.8-10.7,0.2-18.4c1.1-7.8,2.1-13.8,2.1-13.8l1.9,14.2l-0.2,18l2.5-17l-1.7-15.1
				c0,0,3.4,4.2,5.1,12.2c1.7,8,1.7,16.1,1.7,16.1s1.5-13.4,0.4-19.3c-1.1-5.9-2.3-10.9-2.3-10.9s5.1,0,7.6,12.4
				c2.5,12.4,2.3,18,2.3,18s3.2-8.6-0.6-19.7c-3.8-11.1-5.3-13.4-5.3-13.4s5.7,0.6,10.8,8.6c5.1,8,5.5,15.5,5.5,15.5s-0.2-11.3-4-18
				c-3.8-6.7-11.8-8.4-11.8-8.4s8.7-2.9,16,4.6c7.4,7.5,10.6,16.1,10.6,16.1s-4.9-14.5-10.3-19.7c-5.5-5.2-13.1-4.6-13.1-4.6
				s8.2-2.3,15.2-1.3c7,1,13.5,8.8,13.5,8.8s-3-8.8-12.5-10.7c-9.5-1.9-14.8,1.5-14.8,1.5s8.7-8.2,16.9-7.1c8.2,1,12.9,4.8,12.9,4.8
				s-8.2-7.3-14.6-7.1c-6.3,0.2-15.2,6.1-15.2,6.1s1.3-7.3,11.2-11.5c9.9-4.2,14.4-3.4,14.4-3.4s-13.1,0.4-20.5,4.8
				c-7.4,4.4-8.7,6.9-8.7,6.9s6.5-12.8,12.7-18c6.1-5.2,11.8-6.5,11.8-6.5s-11,2.1-16.5,7.5c-5.5,5.4-8.4,12.4-8.4,12.4
				s0.4-7.8,3.2-13.6c2.7-5.9,9.3-10.9,9.3-10.9s-7,2.3-11,10.1c-4,7.8-6.1,13.6-6.1,13.6s-1.3-7.3,2.7-17.6c4-10.3,5.5-14,5.5-14
				s-7.8,10.1-9.5,18C388.9,273.2,387.6,279,387.6,279z"/>
			<rect x="390.1" y="422" class="st4" width="40.1" height="38.6"/>
		</g>
	</g>
</g>
<g id="Gears">
	<path class="st5" d="M316.2,289.3v-9.9l-8.9-0.9c-0.5-4.4-1.7-8.6-3.4-12.6l7.2-5.2l-5-8.6l-8.2,3.6c-2.6-3.5-5.7-6.6-9.2-9.2
		l3.6-8.2l-8.6-5l-5.2,7.2c-3.9-1.7-8.2-2.8-12.6-3.4l-0.9-8.9h-9.9l-0.9,8.9c-4.4,0.5-8.6,1.7-12.6,3.4l-5.2-7.2l-8.6,5l3.6,8.2
		c-3.5,2.6-6.6,5.7-9.2,9.2l-8.2-3.6l-5,8.6l7.2,5.2c-1.7,3.9-2.8,8.2-3.4,12.6l-8.9,0.9v9.9l8.9,0.9c0.5,4.4,1.7,8.6,3.4,12.6
		l-7.2,5.2l5,8.6l8.2-3.6c2.6,3.5,5.7,6.6,9.2,9.2l-3.6,8.2l8.6,5l5.2-7.2c3.9,1.7,8.2,2.8,12.6,3.4l0.9,8.9h9.9l0.9-8.9
		c4.4-0.5,8.6-1.7,12.6-3.4l5.2,7.2l8.6-5l-3.6-8.2c3.5-2.6,6.6-5.7,9.2-9.2l8.2,3.6l5-8.6l-7.2-5.2c1.7-3.9,2.8-8.2,3.4-12.6
		L316.2,289.3z M284.6,305.3c-5.9,6.8-14.6,11.2-24.4,11.2c-17.7,0-32.1-14.4-32.1-32.1c0-17.7,14.4-32.1,32.1-32.1
		c17.7,0,32.1,14.4,32.1,32.1c0,4-0.7,7.8-2.1,11.4"/>
	<path class="st5" d="M142.6,60.8v-7l-6.3-0.7c-0.4-3.1-1.2-6.1-2.4-8.9l5.1-3.7l-3.5-6.1l-5.8,2.6c-1.9-2.5-4.1-4.7-6.5-6.5
		l2.6-5.8l-6.1-3.5l-3.7,5.1c-2.8-1.2-5.8-2-8.9-2.4l-0.7-6.3h-7l-0.7,6.3c-3.1,0.4-6.1,1.2-8.9,2.4L86,21.1L80,24.6l2.6,5.8
		c-2.5,1.9-4.7,4.1-6.5,6.5l-5.8-2.6l-3.5,6.1l5.1,3.7c-1.2,2.8-2,5.8-2.4,8.9l-6.3,0.7v7l6.3,0.7c0.4,3.1,1.2,6.1,2.4,8.9l-5.1,3.7
		l3.5,6.1l5.8-2.6c1.9,2.5,4.1,4.7,6.5,6.5L80,89.9l6.1,3.5l3.7-5.1c2.8,1.2,5.8,2,8.9,2.4l0.7,6.3h7l0.7-6.3
		c3.1-0.4,6.1-1.2,8.9-2.4l3.7,5.1l6.1-3.5l-2.6-5.8c2.5-1.9,4.7-4.1,6.5-6.5l5.8,2.6l3.5-6.1l-5.1-3.7c1.2-2.8,2-5.8,2.4-8.9
		L142.6,60.8z M80.1,57.3c0-12.6,10.2-22.8,22.8-22.8s22.8,10.2,22.8,22.8c0,12.6-10.2,22.8-22.8,22.8c-9.4,0-17.4-5.7-20.9-13.7"/>
</g>
<g id="Speech_Bubble">
	<g>
		<path class="st6" d="M92.3,107.4H46.5c-3.5,0-6.4,2.8-6.4,6.4v29.5c0,3.5,2.8,6.4,6.4,6.4h26.1c2.4,2.9,8.7,10.5,9,11.6
			c0.3,1,0.7-7.3,0.8-11.6h9.8c3.5,0,6.4-2.8,6.4-6.4v-29.5C98.7,110.2,95.8,107.4,92.3,107.4z"/>
		<path class="st7" d="M90.5,105.5H44.7c-3.5,0-6.4,2.8-6.4,6.4v29.5c0,3.5,2.8,6.4,6.4,6.4h26.1c2.4,2.9,8.7,10.5,9,11.6
			c0.3,1,0.7-7.3,0.8-11.6h9.8c3.5,0,6.4-2.8,6.4-6.4v-29.5C96.9,108.4,94,105.5,90.5,105.5z"/>
	</g>
</g>
<g id="Check_Mark">
	<g>
		<path class="st8" d="M66.7,138.2C66.7,138.2,66.7,138.2,66.7,138.2c-1.1,0-2-0.6-2.5-1.4L57.4,126c-0.9-1.4-0.5-3.3,1-4.1
			c1.4-0.9,3.3-0.5,4.1,1l4.4,7l13.7-20.2c0.9-1.4,2.8-1.7,4.2-0.8c1.4,0.9,1.7,2.8,0.8,4.2l-16.3,24
			C68.6,137.8,67.7,138.2,66.7,138.2z"/>
	</g>
</g>
<g id="Mug">
	<g>
		<path class="st7" d="M228,364.2c-4.7,0-8.5,4.1-8.5,9.2s3.8,9.2,8.5,9.2c4.7,0,8.5-4.1,8.5-9.2S232.7,364.2,228,364.2z M228,378.7
			c-2.7,0-4.9-2.4-4.9-5.3c0-2.9,2.2-5.3,4.9-5.3c2.7,0,4.9,2.4,4.9,5.3C232.9,376.3,230.7,378.7,228,378.7z"/>
		<rect x="230.4" y="360.5" class="st7" width="23.4" height="29.2"/>
	</g>
</g>
<g id="Device">
	<g>
		<polygon class="st8" points="386.1,337.8 305.8,337.8 291.1,385.7 371.4,385.7 		"/>
		<polygon class="st7" points="380.1,340.8 309.9,340.8 297.1,382.7 367.3,382.7 		"/>
		<rect x="257.9" y="386" class="st8" width="113.5" height="3.7"/>
		<rect x="322.9" y="386" class="st9" width="48.5" height="3.7"/>
	</g>
</g>
<g id="Table">
	<g>
		<path class="st7" d="M226.8,397.2l-9.6,74.1c-0.2,1.1,0.7,2,1.7,2l0,0c0.8,0,1.5-0.6,1.7-1.4l14.2-74.7H226.8z"/>
		<path class="st7" d="M256.1,397.2l-9.6,82c-0.2,1.1,0.7,2,1.7,2l0,0c0.8,0,1.5-0.6,1.7-1.4l14.2-82.6H256.1z"/>
		<path class="st7" d="M369.3,397.2l9.6,82c0.2,1.1-0.7,2-1.7,2l0,0c-0.8,0-1.5-0.6-1.7-1.4l-14.2-82.6H369.3z"/>
		<path class="st7" d="M340,397.2l9.6,74.1c0.2,1.1-0.7,2-1.7,2l0,0c-0.8,0-1.5-0.6-1.7-1.4l-14.2-74.7H340z"/>
		<rect x="216.6" y="389.5" class="st10" width="163.5" height="9.6"/>
	</g>
</g>
<g id="Character_4">
	<g>
		<path class="st8" d="M444.6,241.7H330.1c-2.5,0-4.6-2-4.6-4.6V27.2c0-2.5,2-4.6,4.6-4.6h114.5c2.5,0,4.6,2,4.6,4.6v209.9
			C449.2,239.6,447.1,241.7,444.6,241.7z"/>
		<path class="st11" d="M426.8,43.5H348c-2.4,0-4.3,1.9-4.3,4.3v89.5c0,2.4,1.9,4.3,4.3,4.3h78.8c2.4,0,4.3-1.9,4.3-4.3V47.8
			C431.1,45.4,429.2,43.5,426.8,43.5z"/>
		<path class="st10" d="M407.1,154.5h-39.4c-1.2,0-2.2-1-2.2-2.2l0,0c0-1.2,1-2.2,2.2-2.2h39.4c1.2,0,2.2,1,2.2,2.2l0,0
			C409.3,153.5,408.3,154.5,407.1,154.5z"/>
		<g>
			<line class="st2" x1="412.9" y1="164" x2="431.7" y2="164"/>
			<line class="st2" x1="357.1" y1="164" x2="409.4" y2="164"/>
			<line class="st2" x1="343.1" y1="164" x2="353.9" y2="164"/>
			<line class="st2" x1="365.3" y1="170.9" x2="431.7" y2="170.9"/>
			<line class="st2" x1="343.1" y1="170.9" x2="361.5" y2="170.9"/>
			<line class="st2" x1="381.3" y1="177.8" x2="431.7" y2="177.8"/>
			<line class="st2" x1="343.1" y1="177.8" x2="378.2" y2="177.8"/>
			<line class="st2" x1="412.9" y1="184.8" x2="431.7" y2="184.8"/>
			<line class="st2" x1="359" y1="184.8" x2="408.8" y2="184.8"/>
			<line class="st2" x1="343.1" y1="184.8" x2="355.8" y2="184.8"/>
		</g>
		<g>
			<polygon class="st6" points="351.4,200.2 353,205 358,205 354,208 355.5,212.8 351.4,209.8 347.4,212.8 348.9,208 344.9,205 
				349.9,205 			"/>
			<polygon class="st6" points="369.4,200.2 371,205 376,205 371.9,208 373.5,212.8 369.4,209.8 365.3,212.8 366.9,208 362.8,205 
				367.9,205 			"/>
			<polygon class="st6" points="387.4,200.2 388.9,205 394,205 389.9,208 391.4,212.8 387.4,209.8 383.3,212.8 384.9,208 380.8,205 
				385.8,205 			"/>
			<polygon class="st11" points="405.3,200.2 406.9,205 411.9,205 407.9,208 409.4,212.8 405.3,209.8 401.3,212.8 402.8,208 
				398.8,205 403.8,205 			"/>
			<polygon class="st11" points="423.3,200.2 424.9,205 429.9,205 425.8,208 427.4,212.8 423.3,209.8 419.2,212.8 420.8,208 
				416.7,205 421.8,205 			"/>
		</g>
		<g>
			<g>
				<path class="st12" d="M407.4,141.7l1.4-35.5c0,0-10.5-3.8-11-3.8c-0.5,0-1.1-14-1.1-14l-21.8,2.1l-0.2,11.3l-11.4,4.8l2.6,35
					H407.4z"/>
				<path class="st7" d="M397.8,102.5c-0.5,0-1.1-14-1.1-14l-21.8,2.1l-0.2,11.3l-2.8,1.2c2.6,3.5,12.4,16.4,15.9,16
					c3.1-0.3,9-10.8,11.8-16C398.6,102.7,397.9,102.5,397.8,102.5z"/>
				<polygon class="st9" points="378.4,90.2 374.9,90.6 374.8,101.9 372,103.1 389.8,100.2 				"/>
			</g>
			<g>
				<path class="st9" d="M376.9,55c0,0-3-0.2-3.6,0.6c-0.6,0.8-7.2,11.1-6.8,12.9c0.5,1.8,2.7,6,2.7,6l1.8,6.5l1.4-10.8l7.4-7.2
					l16.6,5l1.7,8.7l1.2,0.3c0,0,0.6-3.8,0.8-4.4c0.2-0.6,2.9-10.2,2.1-12.3c-0.8-2.1-17.5-9.2-20.3-8.9
					C378.8,51.7,376.9,55,376.9,55z"/>
				<path class="st7" d="M371,79c0,0-2.7-5-3.5,0.2c-0.8,5.1,4.4,7.4,4.4,7.4L371,79z"/>
				<path class="st7" d="M397.9,76.7c0,0,2.6-2.7,3.3,0.6c0.8,3.3-2.6,7.4-2.6,7.4L397.9,76.7z"/>
				<path class="st7" d="M370.4,71.1c0,0,2,17.2,2.3,18.5c0.3,1.4,10.8,10.2,11.4,10.7c0.6,0.5,4.2,1.1,5.7-0.2
					c1.5-1.2,8.6-11.4,8.9-12.3c0.3-0.9-1.1-22-1.1-22l-8.4-3.8c0,0,2,2.4,0.5,2.6s-10.1-4.8-10.1-4.8L370.4,71.1z"/>
				<path class="st2" d="M382.1,69.6c0,0-3.9-1.8-6.6,1.4"/>
				<path class="st2" d="M387.4,69.9c0,0,3.2-3,6.5,0.2"/>
				<path class="st2" d="M387.3,71.6c0,0,0.3,6,0.5,6.8c0.2,0.8,1.8,1.4,0.6,2.7c-1.2,1.4-3.5,2-4.4,0.6"/>
				<path class="st2" d="M379.6,84.5c0,0,3.2,3.3,6.6,2.9s5.9-3.8,5.9-3.8"/>
				<path class="st10" d="M380.2,74.9c0,0.9-0.5,1.7-1.1,1.7c-0.6,0-1.1-0.7-1.1-1.7c0-0.9,0.5-1.7,1.1-1.7
					C379.7,73.2,380.2,74,380.2,74.9z"/>
				<path class="st10" d="M392.7,74.9c0,0.9-0.5,1.7-1.1,1.7c-0.6,0-1.1-0.7-1.1-1.7c0-0.9,0.5-1.7,1.1-1.7
					C392.2,73.2,392.7,74,392.7,74.9z"/>
			</g>
			<g>
				<path class="st8" d="M375.2,141.7c-0.2-21.7-0.4-39.8-0.4-39.8s-24.8,9.8-25.7,9.9c-1.7,0.2-2,15.8-3.7,29.9H375.2z"/>
				<path class="st8" d="M364.7,115.4c0.7,1.2,4,14.9,6.8,26.3h3.5l-0.2-39.8c-1.2-2.7-16.6,4.7-17.2,5.7
					C357,108.6,363.5,113.3,364.7,115.4z"/>
			</g>
			<g>
				<path class="st8" d="M428.4,141.7c-0.9-14.3-4.3-29.7-4.8-29.9c-0.9-0.3-25.7-9.9-25.7-9.9s-0.2,18.1-0.4,39.8H428.4z"/>
				<path class="st8" d="M401.3,141.7c2.7-11.4,6.1-25.1,6.8-26.3c1.2-2.1,7.7-6.8,7.1-7.8c-0.6-1.1-16-8.4-17.2-5.7l-0.2,39.8
					H401.3z"/>
			</g>
		</g>
	</g>
</g>
<g id="Character_2">
	<g>
		<path class="st8" d="M256.7,241.7H142.3c-2.5,0-4.6-2-4.6-4.6V27.2c0-2.5,2-4.6,4.6-4.6h114.5c2.5,0,4.6,2,4.6,4.6v209.9
			C261.3,239.6,259.3,241.7,256.7,241.7z"/>
		<path class="st11" d="M238.9,43.5h-78.8c-2.4,0-4.3,1.9-4.3,4.3v89.5c0,2.4,1.9,4.3,4.3,4.3h78.8c2.4,0,4.3-1.9,4.3-4.3V47.8
			C243.2,45.4,241.3,43.5,238.9,43.5z"/>
		<path class="st10" d="M219.2,154.5h-39.4c-1.2,0-2.2-1-2.2-2.2l0,0c0-1.2,1-2.2,2.2-2.2h39.4c1.2,0,2.2,1,2.2,2.2l0,0
			C221.4,153.5,220.4,154.5,219.2,154.5z"/>
		<g>
			<line class="st2" x1="225" y1="164" x2="243.8" y2="164"/>
			<line class="st2" x1="169.2" y1="164" x2="221.5" y2="164"/>
			<line class="st2" x1="155.2" y1="164" x2="166.1" y2="164"/>
			<line class="st2" x1="177.4" y1="170.9" x2="243.8" y2="170.9"/>
			<line class="st2" x1="155.2" y1="170.9" x2="173.6" y2="170.9"/>
			<line class="st2" x1="193.5" y1="177.8" x2="243.8" y2="177.8"/>
			<line class="st2" x1="155.2" y1="177.8" x2="190.3" y2="177.8"/>
			<line class="st2" x1="225" y1="184.8" x2="243.8" y2="184.8"/>
			<line class="st2" x1="171.1" y1="184.8" x2="220.9" y2="184.8"/>
			<line class="st2" x1="155.2" y1="184.8" x2="167.9" y2="184.8"/>
		</g>
		<g>
			<polygon class="st6" points="163.6,200.2 165.1,205 170.2,205 166.1,208 167.6,212.8 163.6,209.8 159.5,212.8 161.1,208 157,205 
				162,205 			"/>
			<polygon class="st6" points="181.5,200.2 183.1,205 188.1,205 184,208 185.6,212.8 181.5,209.8 177.5,212.8 179,208 175,205 
				180,205 			"/>
			<polygon class="st6" points="199.5,200.2 201.1,205 206.1,205 202,208 203.6,212.8 199.5,209.8 195.4,212.8 197,208 192.9,205 
				197.9,205 			"/>
			<polygon class="st11" points="217.5,200.2 219,205 224,205 220,208 221.5,212.8 217.5,209.8 213.4,212.8 215,208 210.9,205 
				215.9,205 			"/>
			<polygon class="st11" points="235.4,200.2 237,205 242,205 237.9,208 239.5,212.8 235.4,209.8 231.4,212.8 232.9,208 228.9,205 
				233.9,205 			"/>
		</g>
		<g>
			<path class="st6" d="M231.4,104.7c0,0,1.9-1.6,2.1-6.2c0.2-4.6-4.6-7.8-4.6-7.8s0.6-3.2,0.2-5.8s-5.6-4.6-5.6-4.6
				s0.5-2.9-0.3-5.4s-4.5-3.4-4.5-3.4c-7.4-10.3-16-7.6-17.5-7c-1.5-0.6-10.1-3.3-17.5,7c0,0-3.7,0.8-4.5,3.4s-0.3,5.4-0.3,5.4
				s-5.1,2.1-5.6,4.6s0.2,5.8,0.2,5.8s-4.8,3.2-4.6,7.8c0.2,4.6,2.1,6.2,2.1,6.2s-2.9,1.8-2.9,4c0,2.2,2.7,5.8,5.1,6.4
				c2.3,0.6,25.5,0.1,28.1,0c2.6,0.1,25.8,0.6,28.1,0c2.4-0.6,5.1-4.2,5.1-6.4C234.3,106.5,231.4,104.7,231.4,104.7z"/>
			<g>
				<path class="st13" d="M214.9,84.2c0,0,0.2-3.3,2.1-2.1c1.9,1.2-0.3,6.3-1.3,7.5c-1,1.2-2.3,1.9-2.3,1.9l1-6.3L214.9,84.2z"/>
				<g>
					<polygon class="st8" points="239.5,141.7 235.5,123.8 210.8,110.2 190,110.4 165.1,122.3 159.6,141.7 					"/>
					<polygon class="st13" points="211.8,141.7 210.8,110.2 190,110.4 190,141.7 					"/>
					<polygon class="st13" points="191,98.5 190,110.4 199.7,125.7 210.8,110.2 207.8,98.3 					"/>
					<path class="st13" d="M185.6,82.9c0,0,1.5,10.6,2.6,13c1.1,2.5,5.6,8.2,9,9.8c3.4,1.6,6.1,0.3,7.4-0.6s5.1-5.2,7.1-8.7
						c2-3.5,2.8-14.4,2.8-14.4l-0.8-7.7c0,0-16.5-9.8-19.9-9.3c-3.4,0.5-9.8,13.2-9.4,14.7C184.9,81.2,185.6,82.9,185.6,82.9z"/>
					<path class="st14" d="M197.9,93.7c0,0,1.6,1.5,4.3,0.1"/>
					<path class="st14" d="M197,97.6c0,0,3.1,2.4,7.1-0.4"/>
					<path class="st14" d="M190.3,82.2c0,0,2.8-1.9,5.7-0.9"/>
					<path class="st14" d="M204,81.5c0,0,3.7-1.3,5.7,1.1"/>
					<path class="st10" d="M194.5,85.8c0,0.7-0.4,1.4-0.9,1.4c-0.5,0-0.8-0.6-0.8-1.3c0-0.7,0.4-1.4,0.9-1.4
						C194.2,84.5,194.6,85.1,194.5,85.8z"/>
					<path class="st10" d="M207,85.7c0,0.7-0.4,1.4-0.9,1.4c-0.5,0-0.8-0.6-0.8-1.3c0-0.7,0.4-1.4,0.9-1.4
						C206.7,84.4,207,85,207,85.7z"/>
					<path class="st6" d="M195.9,69.9c0,0-0.8,1.6-1.8,4.4c-1.1,2.7-3.8,5.4-5.3,6c-1.6,0.6-3.1,0.8-3.1,0.8s1,1.9,0,1.9
						c-0.9,0-1.8-2.4-1.8-2.4s-3.1-8.2-1.2-14.8s7.8-8.4,7.8-8.4s3-4.5,11.6-3.5c8.5,1,12.8,4.5,15.8,13.5c3,9-1.5,14-2.1,14.5
						c-0.6,0.6-0.2,2-0.8,2.4c-0.6,0.4-1.3-1.5-1.3-1.5s-4.3-1.3-7.7-3.7c-3.4-2.4-7.4-7.8-8.3-9C196.7,68.9,195.9,69.9,195.9,69.9z
						"/>
				</g>
				<path class="st13" d="M185.6,82.9c0,0-1.3-1.9-2.3-0.2c-1,1.6-0.6,4.3,0.4,6c1,1.6,3.3,2.7,3.3,2.7L185.6,82.9z"/>
			</g>
			<polyline class="st2" points="192.3,130 199.7,125.7 207.2,130 			"/>
			<path class="st2" d="M186.6,114.3c-1.3,7.5-2.6,14.9-3.9,22.4"/>
			<path class="st2" d="M214.8,114.5c1.2,7.4,2.3,14.7,3.5,22.1"/>
		</g>
	</g>
</g>
<g id="Character_3">
	<g>
		<rect x="344.5" y="22.7" class="st9" width="8" height="219"/>
		<path class="st8" d="M341.7,248.6H219.5c-2.5,0-4.6-2-4.6-4.6V20.3c0-2.5,2-4.6,4.6-4.6h122.3c2.5,0,4.6,2,4.6,4.6V244
			C346.3,246.6,344.3,248.6,341.7,248.6z"/>
		<g>
			<path class="st11" d="M322.8,37.9h-84.4c-2.4,0-4.3,1.9-4.3,4.3V138c0,2.4,1.9,4.3,4.3,4.3h84.4c2.4,0,4.3-1.9,4.3-4.3V42.2
				C327.1,39.8,325.2,37.9,322.8,37.9z"/>
			<g>
				<path class="st8" d="M317.7,110.1l-26-13.8l-11.1,0.4l-11.1-0.4l-26,13.8c-1.2,0.7-2.1,1.9-2.2,3.3l-2.9,28.9h41.8h0.9h41.8
					l-2.9-28.9C319.8,112,319,110.8,317.7,110.1z"/>
				<polygon class="st15" points="269.6,83.6 269.6,95.9 280.6,110.5 291.6,95.9 291,83.4 				"/>
				<g>
					<path class="st15" d="M290.4,48.6c0,0,4.2,3.9,4.8,6.2c0.7,2.3,0,21.3-1.4,25.3c-1.4,4-5.2,11.1-9.6,13.5
						c-4.3,2.4-9.7,0.5-12.6-3.6c-2.9-4-4.7-10.2-5.2-12.4S265,56,266,52.8c0.9-3.2,8.4-7.7,13.2-8C284,44.4,288.3,46.7,290.4,48.6z
						"/>
					<path class="st2" d="M284.4,75.2c0,0-0.9,1.9-3.5,2.3c-2.6,0.4-4.3-1.2-4.5-2.2"/>
					<path class="st9" d="M284.7,64.8c0,0,4.8,0.9,5.9,1.3c1.1,0.3,1.6-1.6-1.4-2.3C286.2,63.1,283.1,63.1,284.7,64.8z"/>
					<path class="st9" d="M277,64.6c0,0-4.7,1.2-5.8,1.6c-1.1,0.4-1.7-1.5,1.3-2.4C275.4,63,278.5,62.8,277,64.6z"/>
					<path class="st10" d="M284.9,68.8c0.1,0.8,0.7,1.5,1.3,1.4s1-0.8,0.9-1.6c-0.1-0.8-0.7-1.5-1.3-1.4
						C285.2,67.2,284.8,67.9,284.9,68.8z"/>
					<path class="st10" d="M273.2,69.2c0.1,0.8,0.7,1.5,1.3,1.4c0.6-0.1,1-0.8,0.9-1.6c-0.1-0.8-0.7-1.5-1.3-1.4
						C273.6,67.6,273.1,68.3,273.2,69.2z"/>
					<path class="st9" d="M282,77.6c0,0,5.4,0.3,6.2,2.3c0.8,2,0.6,8.6-0.8,10.9c-1.4,2.4-5.4,3.9-7.6,4c-2.2,0.1-5.2-1.5-6.1-2.7
						s-1.7-3.3-1.9-5.1c-0.2-1.8-1-5.9,0.9-7.6C274.5,77.6,282,77.6,282,77.6z"/>
					<g>
						<path class="st16" d="M273.6,81.8c0,0,3.6-1.3,6.3-1.3s6.4,1.3,6.4,1.3s-1.1,4.3-5.8,4.8C275.8,87,273.6,81.8,273.6,81.8z"/>
						<path class="st2" d="M286.2,81.7c0,0-7.3,2.9-12.6,0.1"/>
					</g>
					<path class="st2" d="M284.6,71.6c0,0,2.1,1.9,3,2.1"/>
					<path class="st2" d="M275,72.5c0,0-1.4,1.3-2.4,1.4"/>
					<path class="st15" d="M295.4,67.3c0,0,2.1-2.6,3.3-0.8c1.2,1.8,0.1,7.5-1.2,8.9c-1.2,1.4-3,1.8-3,1.8L295.4,67.3z"/>
					<path class="st15" d="M265.6,67c0,0-2.7-2.1-3.3-0.8c-0.6,1.3-0.5,4.6,0.6,6.9c1.1,2.3,3.4,3.5,3.4,3.5L265.6,67z"/>
				</g>
				<polygon class="st8" points="268.3,90.3 264.7,96.5 275.2,111.2 277.8,102.3 				"/>
				<polygon class="st8" points="291.8,90.3 295.5,96.5 284.9,111.2 282.4,102.3 				"/>
				<polygon class="st8" points="282.4,102.3 280.6,110.5 283.7,107.3 				"/>
				<polygon class="st8" points="277.8,102.3 280.6,110.5 276.5,106.8 				"/>
				<line class="st2" x1="280.6" y1="136.1" x2="280.6" y2="139.6"/>
				<line class="st2" x1="280.6" y1="112.5" x2="280.6" y2="133.6"/>
				<path class="st2" d="M307.3,125.3c-1.3,5.2-2.7,11.6-3.4,16.8"/>
				<path class="st2" d="M309.7,114.7c0.3-0.1-0.5,2.9-1.6,7.4"/>
				<path class="st2" d="M250.2,114.7c-0.7-0.3,4.4,16.1,5.8,27.3"/>
			</g>
		</g>
		<path class="st10" d="M301.5,155.9h-41.9c-1.3,0-2.3-1.1-2.3-2.3l0,0c0-1.3,1.1-2.3,2.3-2.3h41.9c1.3,0,2.3,1.1,2.3,2.3l0,0
			C303.9,154.9,302.8,155.9,301.5,155.9z"/>
		<g>
			<line class="st2" x1="307.7" y1="166" x2="327.7" y2="166"/>
			<line class="st2" x1="248.4" y1="166" x2="304" y2="166"/>
			<line class="st2" x1="233.5" y1="166" x2="245" y2="166"/>
			<line class="st2" x1="257.1" y1="173.4" x2="327.7" y2="173.4"/>
			<line class="st2" x1="233.5" y1="173.4" x2="253.1" y2="173.4"/>
			<line class="st2" x1="274.2" y1="180.7" x2="327.7" y2="180.7"/>
			<line class="st2" x1="233.5" y1="180.7" x2="270.8" y2="180.7"/>
			<line class="st2" x1="307.7" y1="188.1" x2="327.7" y2="188.1"/>
			<line class="st2" x1="250.4" y1="188.1" x2="303.3" y2="188.1"/>
			<line class="st2" x1="233.5" y1="188.1" x2="247.1" y2="188.1"/>
		</g>
		<g>
			<polygon class="st6" points="242.4,204.5 244.1,209.6 249.4,209.6 245.1,212.8 246.7,217.8 242.4,214.7 238.1,217.8 239.7,212.8 
				235.4,209.6 240.8,209.6 			"/>
			<polygon class="st6" points="261.5,204.5 263.2,209.6 268.5,209.6 264.2,212.8 265.8,217.8 261.5,214.7 257.2,217.8 258.8,212.8 
				254.5,209.6 259.9,209.6 			"/>
			<polygon class="st6" points="280.6,204.5 282.3,209.6 287.6,209.6 283.3,212.8 284.9,217.8 280.6,214.7 276.3,217.8 277.9,212.8 
				273.6,209.6 279,209.6 			"/>
			<polygon class="st6" points="299.7,204.5 301.4,209.6 306.7,209.6 302.4,212.8 304,217.8 299.7,214.7 295.4,217.8 297,212.8 
				292.7,209.6 298.1,209.6 			"/>
			<polygon class="st6" points="318.8,204.5 320.5,209.6 325.8,209.6 321.5,212.8 323.1,217.8 318.8,214.7 314.5,217.8 316.1,212.8 
				311.8,209.6 317.2,209.6 			"/>
		</g>
	</g>
</g>
<g id="Character_1_00000000223990596362153870000015826751603722506922_">
	<g>
		<g>
			<path class="st7" d="M114.4,397.2l8,74.1c0.2,1.1-0.7,2-1.7,2l0,0c-0.8,0-1.5-0.6-1.7-1.4l-12.7-74.7H114.4z"/>
			<path class="st7" d="M40.5,397.2L31,471.3c-0.2,1.1,0.7,2,1.7,2l0,0c0.8,0,1.5-0.6,1.7-1.4l14.2-74.7H40.5z"/>
			<polygon class="st9" points="114.9,401.7 114.4,397.2 106.2,397.2 107.1,401.7 			"/>
			<polygon class="st9" points="47.6,401.7 48.7,397.2 40.5,397.2 39.8,401.7 			"/>
		</g>
		<g>
			<path class="st7" d="M112.1,442.3l-6.2,10.6c0,0-5,5.5-5.7,10.2c-0.7,4.7-0.1,6.1,1.2,6.3s16.1,4.4,24,5.7
				c7.9,1.3,21,0.6,23.3-0.4c2.3-0.9,2.6-3.1,0.5-4.2s-17.1-8.9-20.2-11.4c-3.1-2.6-5.7-6.3-5.7-6.9c0-0.5,0.7-4,0.7-4L112.1,442.3z
				"/>
			<path class="st8" d="M149.3,470.6c-1.3-0.7-8.4-4.4-13.9-7.5c-0.3,1-0.9,2.2-2.2,2.5c-2.3,0.5-23.6-7.7-29.5-9.9
				c-1.4,2-3.1,4.8-3.5,7.4c-0.7,4.7-0.1,6.1,1.2,6.3s16.1,4.4,24,5.7c7.9,1.3,21,0.6,23.3-0.4C151,473.8,151.3,471.7,149.3,470.6z"
				/>
		</g>
		<path class="st9" d="M140.8,377.7l-28.7,64.6c0,0,5.1,4.6,10.5,5.6c5.4,1,6.6,1,6.6,1s47.2-75,50.8-91.1
			c3.6-16.1-14.1-18.5-16.3-18.5c-2.2,0-53.5,4.9-53.5,4.9l-47.2,26.5c0,0,3,18.5,24.4,19.3C113.4,391,140.8,377.7,140.8,377.7z"/>
		<line class="st17" x1="140.8" y1="377.7" x2="155.4" y2="363.8"/>
		<line class="st17" x1="160.5" y1="364.8" x2="149.1" y2="373.3"/>
		<g>
			<path class="st7" d="M125.9,318.8c0,0,47.9-12.2,53-8c5.1,4.1,32.1,102.7,34.3,106.8c2.2,4.1,9,10,11.2,10.7
				c2.2,0.7,10.9,3.4,10.2,5.4c-0.7,1.9-15.1,5.6-21.2,4.4c-6.1-1.2-27.7-7.8-28.9-10.9c-1.2-3.2,9.5-15.8,2.9-26.5
				c-6.6-10.7-15.1-25.8-23.1-37.2c-8-11.4-7.3-22.9-7.3-22.9l-40.9,4.1L125.9,318.8z"/>
			<g>
				<path class="st9" d="M201.9,380.1c-8.8-29.8-19.9-66.8-23-69.3c-5.1-4.1-53,8-53,8l-9.7,25.8l40.9-4.1c0,0-0.7,11.4,7.3,22.9
					c4.2,5.9,8.4,12.8,12.5,19.5C182.2,378.6,192,373,201.9,380.1z"/>
				<path class="st17" d="M170.7,321.8c0,0-8.8,10-10.9,15.6"/>
				<path class="st17" d="M159.5,331.3c0,0-1.9,6.8-2.4,9.2"/>
			</g>
			<path class="st8" d="M224.5,428.3c-0.3-0.1-0.6-0.3-1-0.5c-2.3,0.1-5.3-0.2-7.5-1.7c-4.1-2.9-9.5-6.3-17.8-10.9
				c-3.8-2.1-6.8-2.6-9-2.6c-1.4,6.7-5.4,12.5-4.6,14.5c1.2,3.2,22.9,9.7,28.9,10.9c6.1,1.2,20.4-2.4,21.2-4.4
				C235.4,431.7,226.7,429,224.5,428.3z"/>
			<path class="st9" d="M219.1,436.3c-9-1.2-18.7-9.7-25.8-11.2c-7.1-1.5-8.8,1.9-8.8,1.9c1.2,3.2,22.9,9.7,28.9,10.9
				c3.6,0.7,10.3-0.3,15.1-1.6C225.9,436.7,222.5,436.8,219.1,436.3z"/>
		</g>
		<g>
			<path class="st9" d="M157.6,267.7L128,298c-0.9,1-0.5,2.7,0.8,3.2l24.4,8.2c1.1,0.4,2.4,0.1,3.2-0.8l35.7-36.3c1-1,0.4-2.7-1-2.8
				l-29.2-3.4C160.2,265.9,158.7,266.5,157.6,267.7z"/>
			<g>
				<path class="st10" d="M157.5,270.8L133,295.9c-0.8,0.9-0.4,2.2,0.7,2.6l20.2,6.8c0.9,0.3,2,0.1,2.6-0.6l29.5-30
					c0.8-0.8,0.3-2.2-0.8-2.3l-24.2-2.8C159.7,269.4,158.4,269.9,157.5,270.8z"/>
				<path class="st18" d="M157.5,270.8L133,295.9c-0.8,0.9-0.4,2.2,0.7,2.6l20.2,6.8c0.9,0.3,2,0.1,2.6-0.6l29.5-30
					c0.8-0.8,0.3-2.2-0.8-2.3l-24.2-2.8C159.7,269.4,158.4,269.9,157.5,270.8z"/>
			</g>
		</g>
		<path class="st7" d="M128.7,290.8c0,0,2.4-2,3.6-2.3c1.1-0.3,5.1-0.3,6.3-0.9c1.1-0.6,2.6-1,2.9,0.9c0.3,1.9-0.9,3-2.6,3.6
			c-1.7,0.6-6.4,1.4-6.4,1.4l-2.9,2L128.7,290.8z"/>
		<path class="st8" d="M73.4,239.5c0,0-11.7,20.1-13.2,42.3c-1.5,22.2-2.7,86.2-0.2,88.5c2.5,2.3,40.4-6.9,54-17.6
			c13.6-10.7,18.8-24.5,18.8-24.5s-4.2-58.6-8.6-68.6c-4.4-10-20.4-22.4-23.1-23.5C98.4,235.1,73.4,239.5,73.4,239.5z"/>
		<g>
			<path class="st8" d="M98.7,263.8c0,0-5.6,12.3-3.6,21.8c2.1,9.4,8.4,51.9,10.9,53.3c2.5,1.5,55.9-23,55.9-23l-4.4-14.2l-31.4,5
				c0,0,1.5-40.6-1.9-47.1c-3.3-6.5-4.8-12.8-18.2-11.3"/>
			<path class="st2" d="M114.4,321.5c-1.8,2.2-3.5,4.3-4.8,5.7"/>
			<path class="st2" d="M126.1,306.7c0,0-5.1,6.6-9.9,12.7"/>
			<path class="st2" d="M128.6,321.9c-0.7,1.3-1.4,2.5-2.1,3.4"/>
			<path class="st2" d="M134.7,305.2c0,0-2,7.4-4.6,13.6"/>
			<path class="st2" d="M139.7,306c0,0,0.4,7.5-0.8,12.3"/>
		</g>
		<polygon class="st7" points="157.5,301.6 162.5,300.8 164.6,310.9 160.8,312.5 		"/>
		<g>
			<path class="st7" d="M162.5,300.8c0,0,1.2-5.9,1.4-7c0.2-1.2,4.5-4.5,5.1-5.4c0.9-1.4,2.2-2.5,3.5-3.4c0.8-0.6,1.8-1.2,2.8-1.3
				c0.8-0.1,2.4-0.1,2.7,0.8c0.1,0.3-0.5,0.9-0.7,1.1c-2.9,3.7-4.6,5.7-4,5.3l7.6-6.9c0,0,1.3,2.5,0.4,4.8c-0.8,2.3-2.7,5.9-2.7,5.9
				s-2.5,7.5-4.6,9.4c-2.1,1.9-9.7,4.4-9.7,4.4L162.5,300.8z"/>
			<path class="st2" d="M173.3,291c0,0-1.4,2.2-2.2,3.8"/>
		</g>
		<path class="st9" d="M43.3,367.2c0,0,24.4,8.8,30.7,22.5h17.2c0,0-9.1-14.1-22.2-19.4C55.9,365,43.3,367.2,43.3,367.2z"/>
		<path class="st19" d="M50.4,296.2c-4.8-0.7-9.2,2.7-9.9,7.5c-1.7,12.8-5.4,41.4-5.4,51.9c0,13.8,4.1,13.5,5,13.5s25-4.4,45.1,18.8
			H40.5c-1.4,0-2.5,1.1-2.5,2.5v4.3c0,1.4,1.1,2.5,2.5,2.5h118.2c2,0,3.4-1.9,2.8-3.8c-3.4-10.8-25.5-52.1-65.3-76.9
			C64.6,296.7,60.8,297.6,50.4,296.2z"/>
		<g>
			<path class="st7" d="M79.4,397.2l-8.8,81c-0.2,1.1,0.7,2,1.7,2l0,0c0.8,0,1.5-0.6,1.7-1.4l13.5-81.6H79.4z"/>
			<path class="st7" d="M143.8,397.2l8.8,81c0.2,1.1-0.7,2-1.7,2l0,0c-0.8,0-1.5-0.6-1.7-1.4l-13.5-81.6H143.8z"/>
			<polygon class="st9" points="86.6,401.7 87.5,397.2 79.4,397.2 78.8,401.7 			"/>
			<polygon class="st9" points="144.4,401.7 143.8,397.2 135.7,397.2 136.5,401.7 			"/>
		</g>
		<g>
			<path class="st7" d="M119.1,185.8c0,0,5.3,5.9,4.3,9.3c-0.9,3.4-1.1,3.8-0.1,5.4c0.9,1.6,5.9,6.7,5,9c-0.9,2.3-4.4,3.6-4.4,3.6
				s0.1,13.2-1.8,14.1c-1.9,0.9-16.2,1.3-17.4,1.1c-1.2-0.3-3.8-16.8-3.9-22.6c-0.1-5.8,8.2-23.7,11-26
				C114.6,177.5,119.1,185.8,119.1,185.8z"/>
			<line class="st2" x1="103.8" y1="204.6" x2="128.2" y2="198.6"/>
			<path class="st9" d="M114,184.7c0,0,1,3-1,8c-2.1,5-9.2,12-9.2,12s0.3,16.9,1.7,20.2c1.4,3.3,8.5,4,8,5s-3.6,8.9-19.6,10.9
				c-16,2.1-27.3-3.8-31.6-8.7c-4.3-4.9-0.5-18.8,0.9-26.9c1.4-8.2,3.6-28.5,16.3-34.2c12.7-5.7,28,0.3,30.1,0.3
				c2.1,0,11.3-2.8,13.4,0.5c2.1,3.3-0.2,12-3,15.3c-2.8,3.3-3.1,4.3-3.8,3.5c-0.7-0.9-0.2-4-0.2-4L114,184.7z"/>
			<path class="st2" d="M123,196.6c0,0,3.6-0.9,4.6-0.1c0.9,0.8,2.4,7.1-1.6,8.2"/>
			<path class="st2" d="M122.3,193.7c0,0-2.4-1.2-4.2,1.9"/>
			<ellipse class="st10" cx="121" cy="200.8" rx="0.7" ry="2.6"/>
			<path class="st2" d="M123.7,216.7c0,0-1.5,0.8-5.1-1.2"/>
		</g>
	</g>
</g>
</svg>
